<svg xmlns="http://www.w3.org/2000/svg" width="24" height="24" viewBox="0 0 24 24">
    <g fill="none" fill-rule="evenodd">
        <rect width="24" height="24" fill="#0039A6" rx="5"/>
        <path fill="#FFF" d="M5.168 7.002h.11c1.289 0 2.578 0 3.867-.002.071 0 .103.022.131.085l3.056 6.641.042.086.188-.462L15.1 7.077c.02-.05.039-.077.102-.077 1.243.002 2.486.002 3.729.002l.065.003c.004.119.024.224-.089.325-.353.318-.693.65-1.039.977a.327.327 0 0 0-.112.25c.002.225.003.45.003.676v7.077l-.002.154a.3.3 0 0 0 .096.223c.335.325.666.655 1.01.972.11.1.13.204.106.341h-5.477c-.013-.124-.018-.23.094-.331.35-.319.684-.653 1.026-.98a.354.354 0 0 0 .116-.271v-6.295l-.014-.006-.033.072-1.973 4.963c-.365.919-.73 1.837-1.093 2.756-.024.06-.054.08-.118.076a2.208 2.208 0 0 0-.269 0c-.055.003-.079-.017-.102-.066-.474-1.03-.951-2.058-1.428-3.087l-2.15-4.644a.183.183 0 0 0-.05-.07v.09l-.001 5.11c0 .149-.022.3.053.435.061.109.137.211.217.308.441.535.882 1.07 1.332 1.597.087.102.067.205.071.32H5.006c-.012-.12-.014-.227.077-.335.481-.564.953-1.136 1.427-1.707a.686.686 0 0 0 .157-.51c-.004-.04-.007-.081-.007-.121 0-2.005-.001-4.01.001-6.013 0-.164-.017-.316-.127-.446l-.66-.778c-.22-.262-.438-.526-.66-.786-.074-.086-.019-.18-.046-.28"/>
    </g>
</svg>
