<svg xmlns="http://www.w3.org/2000/svg" width="24" height="24" viewBox="0 0 24 24">
    <g fill="none" fill-rule="evenodd">
        <rect width="24" height="24" fill="#0039A6" rx="5"/>
        <path fill="#FFF" fill-rule="nonzero" d="M18.45 8.415h-4.01v-1h4.01v1zm-6.679 4.102c.259.402.388.891.388 1.465 0 .593-.146 1.125-.442 1.595a2.762 2.762 0 0 1-.704.786 2.716 2.716 0 0 1-1.124.502c-.433.09-.9.135-1.405.135H4V7h4.808c1.212.02 2.071.372 2.578 1.065.305.425.456.935.456 1.527 0 .612-.153 1.1-.46 1.472-.171.209-.424.398-.758.57.506.186.89.479 1.147.883zm-5.475-1.575h2.107c.433 0 .782-.082 1.052-.247.27-.165.404-.459.404-.88 0-.465-.178-.774-.535-.922-.307-.103-.699-.157-1.175-.157H6.296v2.206zm3.766 2.897c0-.52-.212-.879-.634-1.071-.236-.11-.568-.166-.995-.17H6.296v2.665H8.4c.432 0 .767-.057 1.008-.175.435-.218.654-.633.654-1.25zm9.875-1.627c.048.327.07.802.061 1.422h-5.192c.029.72.276 1.224.745 1.512.283.18.626.269 1.028.269.424 0 .769-.108 1.035-.33.145-.116.272-.282.383-.49H19.9c-.05.425-.28.856-.691 1.294-.638.697-1.533 1.046-2.682 1.046-.95 0-1.786-.295-2.512-.882-.724-.589-1.087-1.544-1.087-2.87 0-1.242.326-2.193.98-2.855.658-.663 1.506-.993 2.552-.993.62 0 1.179.111 1.677.335.497.224.907.576 1.23 1.06.294.427.482.92.57 1.482zm-1.874.187c-.034-.498-.2-.875-.498-1.132-.295-.259-.664-.388-1.105-.388-.48 0-.85.138-1.112.41-.265.272-.43.642-.497 1.11h3.212z"/>
    </g>
</svg>
