<svg xmlns="http://www.w3.org/2000/svg" width="240" height="23" viewBox="0 0 240 23">
    <g fill="#0039A6" fill-rule="evenodd">
        <path d="M5.987.782L.001 18.744h2.993L8.981.782zM17.961 6.77L7.484 11.258v2.993l10.477 4.491V15.75l-7.483-2.993 7.485-2.993zM20.652 18.744h3.294V6.754h-3.294zM43.728 7.403a3.555 3.555 0 0 0-1.392-.743 6.425 6.425 0 0 0-1.762-.232c-.835 0-1.559.202-2.169.604-.61.401-1.092.866-1.448 1.391-.326-.743-.802-1.26-1.428-1.554a4.82 4.82 0 0 0-2.077-.441c-.787 0-1.486.17-2.097.51-.61.34-1.133.82-1.565 1.439h-.046V6.753h-3.109v11.99h3.294v-6.957c0-.588.084-1.063.255-1.427.17-.362.375-.64.613-.834a2.08 2.08 0 0 1 .743-.394c.256-.07.46-.105.615-.105.525 0 .924.089 1.196.266.269.18.462.414.579.708.116.294.18.614.197.963.016.347.023.7.023 1.055v6.726h3.292v-6.68c0-.37.028-.737.082-1.101.054-.363.162-.688.324-.974.163-.286.387-.518.674-.697.285-.177.66-.266 1.125-.266.463 0 .83.078 1.1.232.271.155.476.363.615.626.138.264.224.572.255.927.032.356.047.736.047 1.137v6.796h3.293v-8.025c0-.773-.108-1.434-.325-1.983-.216-.548-.517-.993-.904-1.333M47.857 4.898h3.293V2.185h-3.293zM54.096 4.898h3.292V2.185h-3.292zM54.096 18.744h3.292V6.754h-3.292zM77.172 7.403a3.54 3.54 0 0 0-1.393-.743 6.419 6.419 0 0 0-1.763-.232c-.835 0-1.556.202-2.167.604-.611.401-1.094.866-1.45 1.391-.324-.743-.8-1.26-1.427-1.554a4.819 4.819 0 0 0-2.075-.441c-.788 0-1.489.17-2.1.51-.608.34-1.131.82-1.564 1.439h-.046V6.753h-3.109v11.99h3.295v-6.957c0-.588.084-1.063.255-1.427.17-.362.373-.64.613-.834.241-.193.488-.325.743-.394.255-.07.46-.105.614-.105.527 0 .925.089 1.196.266.268.18.463.414.578.708.116.294.182.614.199.963.013.347.022.7.022 1.055v6.726h3.294v-6.68c0-.37.026-.737.08-1.101.054-.363.162-.688.325-.974.163-.286.387-.518.672-.697.286-.177.662-.266 1.126-.266.464 0 .831.078 1.1.232.271.155.476.363.616.626.14.264.224.572.256.927.03.356.044.736.044 1.137v6.796H78.4v-8.025c0-.773-.107-1.434-.324-1.983-.217-.548-.518-.993-.904-1.333M81.09 18.744h3.294V6.754H81.09zM81.09 4.898h3.294V2.185H81.09zM97.348 7.785c-.324-.425-.768-.757-1.335-.996-.563-.24-1.286-.36-2.167-.36a4.7 4.7 0 0 0-2.041.475c-.664.317-1.205.824-1.623 1.519h-.07v-1.67h-3.13v11.991h3.293V12.46c0-1.221.2-2.1.603-2.633.4-.533 1.05-.8 1.947-.8.789 0 1.339.243 1.647.73.31.488.464 1.227.464 2.216v6.772h3.294V11.37c0-.743-.067-1.419-.198-2.03-.132-.61-.358-1.128-.684-1.554M112.319 15.949c-.44.271-.956.406-1.543.406-.31 0-.607-.058-.894-.174a2.586 2.586 0 0 1-.753-.464 2.202 2.202 0 0 1-.522-.696 1.913 1.913 0 0 1-.197-.847c0-.34.066-.649.197-.926.131-.28.305-.534.522-.766.217-.232.464-.433.741-.603.28-.17.565-.317.86-.44l2.83 3.454c-.388.433-.801.785-1.241 1.056m-1.474-11.341a1.49 1.49 0 0 1 1.044-.406c.4 0 .754.155 1.055.463.303.311.453.682.453 1.114 0 .603-.167 1.075-.498 1.415-.335.34-.731.657-1.196.951-.31-.387-.603-.766-.881-1.137-.278-.37-.417-.819-.417-1.345 0-.432.145-.785.44-1.055m7.561 8.292a8.694 8.694 0 0 0 .51-2.158h-2.853c-.047.34-.115.677-.208 1.01a4.492 4.492 0 0 1-.394.962l-2.134-2.62a7.177 7.177 0 0 0 2.098-1.671c.566-.665.847-1.484.847-2.458 0-.65-.12-1.221-.36-1.718a3.602 3.602 0 0 0-.974-1.24 4.264 4.264 0 0 0-1.437-.753 5.977 5.977 0 0 0-1.775-.255c-.557 0-1.093.09-1.612.267a4.39 4.39 0 0 0-1.379.765 3.77 3.77 0 0 0-.963 1.194c-.24.464-.359.982-.359 1.554 0 .727.15 1.36.452 1.902a10.61 10.61 0 0 0 1.125 1.624c-.48.231-.944.502-1.392.811a6.51 6.51 0 0 0-1.194 1.055 4.66 4.66 0 0 0-.823 1.322 4.157 4.157 0 0 0-.302 1.612c0 .788.14 1.489.417 2.1a4.59 4.59 0 0 0 1.137 1.553 4.79 4.79 0 0 0 1.704.963 6.685 6.685 0 0 0 2.099.324c.942 0 1.79-.162 2.54-.487.75-.325 1.457-.811 2.123-1.46l1.344 1.646h4.035l-3.36-3.92a7.219 7.219 0 0 0 1.088-1.924M134.213 15.926c-.427.44-1.034.66-1.822.66-.51 0-.944-.116-1.3-.347a2.582 2.582 0 0 1-.845-.893c-.21-.364-.36-.77-.452-1.218a6.476 6.476 0 0 1 0-2.678c.092-.456.25-.874.474-1.253.225-.378.515-.688.87-.928.356-.238.796-.36 1.322-.36 1.407 0 2.22.689 2.437 2.065h3.223c-.048-.773-.232-1.441-.557-2.006a4.539 4.539 0 0 0-1.265-1.415 5.48 5.48 0 0 0-1.762-.846 7.541 7.541 0 0 0-2.053-.279c-.973 0-1.84.163-2.597.488-.756.325-1.4.776-1.924 1.356a5.798 5.798 0 0 0-1.196 2.064 7.995 7.995 0 0 0-.405 2.586c0 .898.147 1.72.441 2.47a5.74 5.74 0 0 0 1.23 1.936 5.468 5.468 0 0 0 1.911 1.265c.752.301 1.573.452 2.47.452 1.593 0 2.9-.417 3.92-1.252 1.02-.836 1.64-2.05 1.856-3.642h-3.178c-.107.743-.376 1.335-.798 1.775M148.65 14.163a3.774 3.774 0 0 1-.475 1.23 2.53 2.53 0 0 1-.906.87c-.379.216-.848.324-1.404.324-.556 0-1.02-.108-1.391-.325a2.54 2.54 0 0 1-.892-.87 3.707 3.707 0 0 1-.476-1.229 7.06 7.06 0 0 1-.14-1.403c0-.479.047-.95.14-1.414.092-.464.25-.874.476-1.23.224-.356.521-.645.892-.87.372-.223.835-.336 1.391-.336s1.025.113 1.404.336c.378.225.68.514.906.87.222.356.381.766.474 1.23a7.119 7.119 0 0 1 0 2.817m1.74-6.007a5.586 5.586 0 0 0-1.96-1.274c-.766-.302-1.62-.454-2.564-.454-.943 0-1.793.152-2.55.454a5.592 5.592 0 0 0-1.948 1.274 5.61 5.61 0 0 0-1.253 1.994c-.293.781-.441 1.651-.441 2.61 0 .96.148 1.825.44 2.597a5.606 5.606 0 0 0 1.254 1.983c.541.55 1.19.971 1.947 1.264.758.294 1.608.441 2.551.441.944 0 1.798-.147 2.564-.44a5.447 5.447 0 0 0 1.96-1.265 5.627 5.627 0 0 0 1.253-1.983c.291-.772.44-1.638.44-2.597 0-.959-.149-1.829-.44-2.61a5.632 5.632 0 0 0-1.253-1.994M170.935 7.403a3.527 3.527 0 0 0-1.39-.743 6.424 6.424 0 0 0-1.764-.232c-.834 0-1.557.202-2.169.604-.61.401-1.093.866-1.448 1.391-.324-.743-.802-1.26-1.426-1.554a4.825 4.825 0 0 0-2.077-.441c-.788 0-1.487.17-2.098.51-.61.34-1.133.82-1.565 1.439h-.046V6.753h-3.108v11.99h3.293v-6.957c0-.588.084-1.063.256-1.427.17-.362.373-.64.614-.834.24-.193.487-.325.742-.394a2.41 2.41 0 0 1 .614-.105c.526 0 .924.089 1.194.266.27.18.464.414.58.708.116.294.183.614.198.963.014.347.022.7.022 1.055v6.726h3.295v-6.68c0-.37.026-.737.08-1.101.053-.363.161-.688.325-.974a1.95 1.95 0 0 1 .672-.697c.287-.177.662-.266 1.126-.266.463 0 .831.078 1.1.232.272.155.476.363.615.626.139.264.225.572.255.927.03.356.047.736.047 1.137v6.796h3.293v-8.025c0-.773-.107-1.434-.324-1.983-.218-.548-.519-.993-.906-1.333M183.53 14.197c-.093.464-.251.87-.476 1.22-.226.346-.519.629-.88.845-.364.217-.818.325-1.359.325-.525 0-.974-.108-1.345-.325a2.606 2.606 0 0 1-.891-.846 3.659 3.659 0 0 1-.488-1.219c-.1-.464-.15-.934-.15-1.414 0-.494.045-.974.138-1.437.093-.464.252-.874.476-1.23.224-.356.517-.645.88-.87.364-.223.817-.336 1.357-.336.526 0 .97.113 1.334.336.364.225.661.519.893.882.232.363.397.777.499 1.241.1.464.152.935.152 1.414 0 .48-.048.95-.14 1.414m2.11-5.82a5.036 5.036 0 0 0-1.694-1.416c-.68-.354-1.491-.533-2.435-.533-.742 0-1.422.147-2.041.441-.618.294-1.129.765-1.53 1.415h-.045v-1.53h-3.132v16.188h3.293V17.26h.047a3.878 3.878 0 0 0 1.541 1.334c.627.301 1.31.452 2.054.452.88 0 1.65-.17 2.305-.51a4.895 4.895 0 0 0 1.648-1.368c.441-.573.77-1.23.987-1.972a8.287 8.287 0 0 0 .324-2.319c0-.85-.109-1.666-.324-2.447a5.998 5.998 0 0 0-.998-2.052M196.4 14.104c0 .186-.019.435-.057.743a2.48 2.48 0 0 1-.313.916c-.17.302-.434.56-.79.777-.355.217-.856.325-1.507.325-.263 0-.517-.023-.765-.07a1.857 1.857 0 0 1-.649-.243 1.243 1.243 0 0 1-.44-.476c-.11-.2-.163-.448-.163-.742 0-.308.053-.564.163-.765.107-.2.25-.367.429-.5.177-.13.385-.234.625-.312.24-.076.484-.138.731-.185.261-.046.525-.085.788-.116s.515-.07.755-.116c.239-.046.463-.104.672-.174a1.49 1.49 0 0 0 .522-.29v1.228zm3.294 1.972V9.838c0-.727-.163-1.31-.487-1.75a3.336 3.336 0 0 0-1.252-1.034 5.608 5.608 0 0 0-1.694-.498 13.41 13.41 0 0 0-1.832-.128c-.665 0-1.325.067-1.983.198a5.642 5.642 0 0 0-1.773.66 3.93 3.93 0 0 0-1.299 1.23c-.34.51-.533 1.152-.58 1.924h3.293c.062-.649.28-1.112.65-1.39.37-.279.88-.418 1.53-.418.293 0 .568.02.823.057.256.04.479.117.673.232.194.117.347.28.463.487.117.209.175.492.175.848.015.34-.086.6-.302.775-.216.178-.51.315-.882.408-.37.092-.796.161-1.276.207-.478.047-.965.11-1.46.187s-.984.18-1.472.312-.92.33-1.3.592c-.379.263-.688.615-.928 1.055-.24.44-.358 1.002-.358 1.682 0 .618.104 1.152.312 1.6.21.448.498.82.87 1.113.372.294.804.51 1.299.65.495.138 1.027.208 1.6.208.742 0 1.47-.108 2.18-.324a4.283 4.283 0 0 0 1.856-1.137c.015.2.042.399.082.592.037.193.088.382.15.568h3.34c-.155-.248-.263-.618-.326-1.113a12.723 12.723 0 0 1-.092-1.555zM212.611 7.785c-.324-.425-.768-.757-1.334-.996-.564-.24-1.286-.36-2.168-.36-.696 0-1.376.159-2.04.475-.666.317-1.206.824-1.624 1.519h-.069v-1.67h-3.13v11.991h3.291V12.46c0-1.221.201-2.1.604-2.633.4-.533 1.051-.8 1.948-.8.788 0 1.337.243 1.647.73.309.488.464 1.227.464 2.216v6.772h3.292V11.37a9.68 9.68 0 0 0-.197-2.03c-.131-.61-.36-1.128-.684-1.554M220.892 14.963h-.048l-2.712-8.21h-3.502l4.197 11.248c.094.232.14.48.14.743 0 .355-.106.68-.314.974-.208.294-.53.463-.962.51-.325.016-.65.007-.974-.024-.324-.03-.643-.06-.951-.092v2.714c.34.03.677.057 1.008.08.332.023.67.036 1.01.036 1.127 0 2.01-.21 2.642-.627.635-.417 1.13-1.113 1.486-2.087l5.01-13.475h-3.41l-2.62 8.21zM237.493.782l-1.4 3.672-1.385-3.672h-1.835v5.6h1.275v-3.95h.03l1.463 3.95h.92l1.43-3.95h.015v3.95h1.323v-5.6zM227.583 1.871h1.587v4.512h1.399V1.87h1.558V.781h-4.544zM47.857 19.161c0 .448-.129.738-.384.869a1.91 1.91 0 0 1-.893.198c-.293 0-.525-.032-.695-.093v2.714c.31.06.657.093 1.043.093.835 0 1.525-.074 2.065-.22.541-.148.97-.372 1.288-.674a2.49 2.49 0 0 0 .672-1.124c.13-.449.198-.982.198-1.6V6.753h-3.294V19.16zM20.652 4.898h3.294V2.185h-3.294z"/>
    </g>
</svg>
