<?xml version="1.0" encoding="utf-8"?>
<!-- Generator: Adobe Illustrator 19.2.1, SVG Export Plug-In . SVG Version: 6.00 Build 0)  -->
<svg version="1.1" id="Layer_1" xmlns="http://www.w3.org/2000/svg" xmlns:xlink="http://www.w3.org/1999/xlink" x="0px" y="0px"
	 width="300" height="58" viewBox="0 0 260 50" style="enable-background:new 0 0 260 50;" xml:space="preserve">
<style type="text/css">
	.st0{fill:none;enable-background:new    ;}
	.st1{fill:#333333;}
</style>
<path class="st0" d="z"/>
<g>
	<g>
		<g>
			<polygon class="st1" points="76.8,14.7 80.7,14.7 80.7,25.3 69.9,25.3 69.9,14.7 73.9,14.7 73.9,13.7 61.6,13.7 61.6,14.7 
				65.5,14.7 65.5,37.7 61.6,37.7 61.6,38.7 73.9,38.7 73.9,37.7 69.9,37.7 69.9,26.3 80.7,26.3 80.7,37.7 76.8,37.7 76.8,38.7 
				89.1,38.7 89.1,37.7 85.2,37.7 85.2,14.7 89.1,14.7 89.1,13.7 76.8,13.7 			"/>
			<path class="st1" d="M97.9,23.6c-2.2,0-4,0.8-5.5,2.3c-1.5,1.5-2.2,3.3-2.2,5.5c0,2.2,0.7,4.1,2.3,5.6c1.5,1.5,3.3,2.3,5.3,2.3
				c2.1,0,3.9-0.8,5.5-2.3c1.5-1.5,2.3-3.4,2.3-5.7c0-2.2-0.7-4-2.2-5.4C101.9,24.3,100.1,23.6,97.9,23.6z M101.2,35.9
				c-0.2,0.8-0.5,1.4-1.1,1.8c-0.6,0.4-1.3,0.6-2.2,0.6c-0.9,0-1.6-0.2-2.1-0.6c-0.6-0.4-0.9-1-1.1-1.7c-0.2-0.7-0.3-2.3-0.3-4.6
				c0-2.3,0.1-3.8,0.2-4.5c0.1-0.7,0.5-1.3,1.1-1.8c0.6-0.4,1.3-0.7,2.2-0.7c0.9,0,1.7,0.2,2.2,0.6c0.5,0.4,0.9,1,1,1.7
				c0.2,0.7,0.2,2.2,0.2,4.5C101.4,33.6,101.3,35.1,101.2,35.9z"/>
			<path class="st1" d="M124.3,29.9c0-1.6-0.1-2.8-0.4-3.5c-0.3-0.8-0.7-1.4-1.4-2c-0.7-0.6-1.6-0.8-2.7-0.8c-2.3,0-4.1,1.3-5.4,3.8
				l-0.1,0.1v-3.5H108V25h2.6v12.7H108v1h8.7v-1h-2.4v-6.3c0-2.1,0.5-3.7,1.4-5c1-1.2,2-1.9,3.2-1.9c0.8,0,1.2,0.3,1.4,0.8
				c0.2,0.5,0.3,1.5,0.3,3v9.3h-2.5v1h9v-1h-2.9V29.9z"/>
			<path class="st1" d="M142.9,30.3c-0.1-2.1-0.8-3.7-2-4.9c-1.2-1.2-2.7-1.8-4.4-1.8c-1.9,0-3.6,0.7-5,2.2
				c-1.4,1.5-2.2,3.3-2.2,5.5c0,2.2,0.7,4.1,2.2,5.6c1.5,1.5,3.2,2.2,5.2,2.2c1.4,0,2.7-0.4,3.8-1.3c1.1-0.9,1.9-2.2,2.3-4.1h-0.8
				c-0.9,3.1-2.7,4.6-5.3,4.6c-1.3,0-2.2-0.4-2.7-1.3c-0.5-0.9-0.7-3.1-0.6-6.8H142.9z M133.5,27.1c0-0.8,0.3-1.5,0.8-1.9
				c0.5-0.5,1.2-0.7,2.1-0.7c1.8,0,2.7,1,2.7,3c0,0.5-0.1,1.1-0.1,2h-5.4V27.1z"/>
			<path class="st1" d="M153.3,29c-1.7-0.2-2.8-0.5-3.2-0.8c-0.5-0.3-0.7-0.7-0.7-1.3c0-0.6,0.3-1.2,1-1.7c0.6-0.5,1.4-0.8,2.4-0.8
				c2.2,0,3.6,1.2,4.2,3.6h0.8v-4.2h-0.6c-0.3,0.5-0.5,0.9-0.8,1.1c-1-0.9-2.2-1.4-3.6-1.4c-1.4,0-2.5,0.4-3.4,1.3
				c-0.9,0.9-1.4,1.9-1.4,3.2c0,2.6,1.7,4.1,5.2,4.7c2,0.3,3.3,0.6,3.8,1c0.5,0.3,0.7,0.9,0.7,1.5c0,0.8-0.4,1.5-1.2,2.1
				c-0.8,0.6-1.7,0.9-2.6,0.9c-2.5,0-4.3-1.8-5.4-5.3h-0.7v5.5h0.7l1.3-1.1c1.3,1.2,2.7,1.7,4.1,1.7c1.4,0,2.6-0.5,3.6-1.5
				c1-1,1.4-2.2,1.4-3.6C158.9,31.2,157.1,29.5,153.3,29z"/>
			<path class="st1" d="M171.1,37.1c-0.6,0.4-1.1,0.6-1.7,0.6c-0.8,0-1.3-0.2-1.4-0.7c-0.2-0.5-0.3-1.4-0.3-2.8V25h4.4v-0.9h-4.4
				v-6.4L164,19v5h-3.3V25h3.3v9c0,1.1,0.1,2,0.2,2.6c0.1,0.6,0.5,1.2,1.1,1.6c0.6,0.4,1.5,0.7,2.7,0.7c2.9,0,4.6-1.2,5.2-3.6h-0.8
				C172.1,36.1,171.7,36.7,171.1,37.1z"/>
		</g>
		<g>
			<path class="st1" d="M236.2,29.9c0-1.6-0.1-2.8-0.4-3.5c-0.3-0.8-0.7-1.4-1.4-2c-0.7-0.6-1.6-0.8-2.7-0.8c-2.3,0-4.1,1.3-5.4,3.8
				l-0.1,0.1v-3.5H220V25h2.6v12.7H220v1h8.7v-1h-2.4v-6.3c0-2.1,0.5-3.7,1.4-5c1-1.2,2-1.9,3.2-1.9c0.8,0,1.2,0.3,1.4,0.8
				c0.2,0.5,0.3,1.5,0.3,3v9.3h-2.5v1h9v-1h-2.9V29.9z"/>
			<path class="st1" d="M178.2,13.7v0.9h3.9v23.1h-3.9v1h12.7v-1h-4.4V26.4h1c1.2,0,2.2,0.1,2.8,0.2c0.6,0.2,1.1,0.6,1.5,1.3
				c0.4,0.7,0.7,1.9,0.8,3.5h0.9V20.8h-0.9c-0.1,1.5-0.4,2.5-0.8,3.2c-0.5,0.7-1,1.1-1.6,1.2c-0.6,0.1-1.5,0.2-2.6,0.2h-1V14.7h5.4
				c2,0,3.4,0.3,4.2,0.9c0.8,0.6,1.5,1.7,1.9,3.1c0.4,1.5,0.7,2.3,0.7,2.6h0.8v-7.5H178.2z"/>
			<path class="st1" d="M252.8,38.7h6.3v-1h-2.5v-24h-7.1v0.9h3.4v11.7l-0.1-0.2c-0.9-1.8-2.4-2.6-4.3-2.6c-1.9,0-3.6,0.8-5,2.4
				c-1.4,1.6-2.1,3.4-2.1,5.5c0,2,0.7,3.7,2,5.3c1.3,1.6,2.9,2.3,4.6,2.3c2.2,0,3.8-1.1,4.8-3.3l0.1-0.2V38.7z M252.6,34.7
				c-0.2,0.9-0.8,1.7-1.6,2.4c-0.8,0.7-1.7,1.1-2.8,1.1c-1,0-1.7-0.3-2.1-1c-0.4-0.7-0.7-2.4-0.7-5c0-3.1,0.2-5.1,0.5-6.2
				c0.3-1,1.2-1.5,2.5-1.5c1.4,0,2.4,0.5,3.2,1.5c0.8,1,1.2,2.5,1.2,4.4C252.9,32.3,252.8,33.8,252.6,34.7z"/>
			<path class="st1" d="M214.9,37.7V24.1h-6.6V25h3v5.6c0,2.5-0.5,4.3-1.5,5.5c-1,1.2-2,1.8-3.2,1.8c-0.8,0-1.2-0.3-1.4-0.9
				c-0.2-0.6-0.3-1.7-0.3-3.2v-9.8h-5.9c0,0.3,0,0.6,0.1,0.9h2.2v8.2c0,2.3,0.4,3.9,1.3,4.6c0.8,0.7,1.9,1.1,3.3,1.1
				c2.4,0,4.2-1.2,5.3-3.5l0.1-0.2v3.4h6.2v-1H214.9z"/>
		</g>
	</g>
	<g>
		<g>
			<circle class="st1" cx="48.8" cy="2.8" r="2.8"/>
			<path class="st1" d="M43.4,1.4L43.4,1.4c-3.3,1.9-5.6,5.5-5.6,9.6v5.9h-5.4v1.5h5.4v30.2l0,0c3.3-1.9,5.6-5.5,5.6-9.6V18.4h5.3
				v-1.5h-5.3V1.4z"/>
			<circle class="st1" cx="32.5" cy="47.2" r="2.8"/>
		</g>
		<path class="st1" d="M26.9,21.2C26.4,19.5,25.5,18,24,17c-1.5-1.1-3.1-1.5-4.6-1.5c-0.6,0-1.4,0.1-2.2,0.3c-0.5,0.2-1.3,0.5-2,1
			c-0.5,0.3-1.2,1-2,2.1c-0.9,1.4-1.5,2.5-1.5,2.5V0H2.5C2.2,0.5,2,1,1.7,1.5h4.6v34.7h-5C1.1,37,1,37.9,0.9,38.8h11v-8.2
			c0-3.3,0.2-5.7,0.5-7.2c0.3-1.5,1.1-2.9,2.2-4.3s2.5-2.1,4.2-2.1c1.5,0,2.3,1,2.6,1.9c0.2,0.8,0.2,1.9,0.2,3.6
			c0,0.8,0,16.6,0,16.6c0,4.1,2.3,7.7,5.6,9.6l0,0V36.4V23.9C27.1,22.9,27.1,22.1,26.9,21.2z"/>
	</g>
</g>
</svg>
